P3
4 4
255
191 127 63 127 127 127 106 148 191 95 159 223 
191 148 42 141 127 113 127 141 170 127 127 212 
191 170 106 170 170 141 143 147 161 129 157 157 
159 191 95 170 170 127 150 157 136 162 140 140 
