P3
4 4
255
191 64 64 64 191 64 64 64 191 191 191 191 
191 191 64 191 64 191 64 191 191 128 128 128 
191 128 64 128 191 64 128 64 191 191 128 128 
128 191 128 128 128 191 191 191 128 69 154 89 
