P3
4 4
255
0 255 255 255 0 255 255 255 0 0 0 0 
0 0 255 0 255 0 255 0 0 127 127 127 
0 127 255 127 0 255 127 255 0 0 127 127 
127 0 127 127 127 0 0 0 127 245 75 205 
