P3
4 4
255
255 0 0 0 0 0 0 0 0 255 0 0 
255 0 0 255 0 0 0 0 0 128 0 0 
255 0 0 128 0 0 128 0 0 255 0 0 
128 0 0 128 0 0 255 0 0 10 0 0 
