P3
4 4
255
100 88 69 196 174 136 48 42 33 255 255 238 
255 255 205 148 131 102 244 217 169 172 153 119 
198 176 137 246 219 170 98 87 68 222 198 154 
255 241 187 196 175 136 255 255 222 151 135 105 
